<svg xmlns="http://www.w3.org/2000/svg" width="18" height="17" viewBox="0 0 18 17">
  <g id="Group_2" data-name="Group 2" transform="translate(42 -1)">
    <g id="Group_6" data-name="Group 6">
      <path id="Path_14" data-name="Path 14" d="M-33,11a5.006,5.006,0,0,1-5-5,5.006,5.006,0,0,1,5-5,5.006,5.006,0,0,1,5,5A5.006,5.006,0,0,1-33,11Zm0-8a3,3,0,0,0-3,3,3,3,0,0,0,3,3,3,3,0,0,0,3-3A3,3,0,0,0-33,3Z" fill="#23232c"/>
    </g>
    <g id="Group_7" data-name="Group 7">
      <path id="Path_15" data-name="Path 15" d="M-24,18H-42V15.108a2.987,2.987,0,0,1,1.409-2.544L-38,10.947l.556.458A7,7,0,0,0-33,13a7,7,0,0,0,4.447-1.6l.556-.458,2.587,1.617A2.986,2.986,0,0,1-24,15.108Zm-16-2h14v-.892a1,1,0,0,0-.471-.848l-1.392-.87A9.015,9.015,0,0,1-33,15a9.015,9.015,0,0,1-5.137-1.61l-1.393.87a1,1,0,0,0-.47.848Z" fill="#23232c"/>
    </g>
  </g>
</svg>
